<?xml version="1.0" encoding="UTF-8" standalone="no"?>
<svg
   xmlns:osb="http://www.openswatchbook.org/uri/2009/osb"
   xmlns:dc="http://purl.org/dc/elements/1.1/"
   xmlns:cc="http://creativecommons.org/ns#"
   xmlns:rdf="http://www.w3.org/1999/02/22-rdf-syntax-ns#"
   xmlns:svg="http://www.w3.org/2000/svg"
   xmlns="http://www.w3.org/2000/svg"
   id="svg8"
   version="1.1"
   viewBox="0 0 1404 1872"
   height="1872"
   width="1404">
  <defs
     id="defs2">
    <linearGradient
       osb:paint="solid"
       id="linearGradient6504">
      <stop
         id="stop6502"
         offset="0"
         style="stop-color:#7d7d7d;stop-opacity:1;" />
    </linearGradient>
  </defs>
  <metadata
     id="metadata5">
    <rdf:RDF>
      <cc:Work
         rdf:about="">
        <dc:format>image/svg+xml</dc:format>
        <dc:type
           rdf:resource="http://purl.org/dc/dcmitype/StillImage" />
        <dc:title />
      </cc:Work>
    </rdf:RDF>
  </metadata>
  <g
     id="lines">
    <path
       id="path1195"
       d="M 0.50001254,182.5 H 1403.5"
       style="fill:none;stroke:#999999;stroke-width:1;stroke-linecap:square;stroke-linejoin:miter;stroke-miterlimit:4;stroke-dasharray:none;stroke-opacity:1" />
    <path
       style="fill:none;stroke:#999999;stroke-width:1;stroke-linecap:square;stroke-linejoin:miter;stroke-miterlimit:4;stroke-dasharray:none;stroke-opacity:1"
       d="M 0.50001254,226.5 H 1403.5"
       id="path1195-3" />
    <path
       id="path1195-3-6"
       d="M 0.50001254,270.5 H 1403.5"
       style="fill:none;stroke:#999999;stroke-width:1;stroke-linecap:square;stroke-linejoin:miter;stroke-miterlimit:4;stroke-dasharray:none;stroke-opacity:1" />
    <path
       style="fill:none;stroke:#999999;stroke-width:1;stroke-linecap:square;stroke-linejoin:miter;stroke-miterlimit:4;stroke-dasharray:none;stroke-opacity:1"
       d="M 0.50001254,314.5 H 1403.5"
       id="path1195-7" />
    <path
       id="path1195-3-5"
       d="M 0.50001254,358.5 H 1403.5"
       style="fill:none;stroke:#999999;stroke-width:1;stroke-linecap:square;stroke-linejoin:miter;stroke-miterlimit:4;stroke-dasharray:none;stroke-opacity:1" />
    <path
       style="fill:none;stroke:#999999;stroke-width:1;stroke-linecap:square;stroke-linejoin:miter;stroke-miterlimit:4;stroke-dasharray:none;stroke-opacity:1"
       d="M 0.50001254,402.5 H 1403.5"
       id="path1195-3-6-3" />
    <path
       style="fill:none;stroke:#999999;stroke-width:1;stroke-linecap:square;stroke-linejoin:miter;stroke-miterlimit:4;stroke-dasharray:none;stroke-opacity:1"
       d="M 0.50001254,446.5 H 1403.5"
       id="path1195-5" />
    <path
       id="path1195-3-62"
       d="M 0.50001254,490.5 H 1403.5"
       style="fill:none;stroke:#999999;stroke-width:1;stroke-linecap:square;stroke-linejoin:miter;stroke-miterlimit:4;stroke-dasharray:none;stroke-opacity:1" />
    <path
       style="fill:none;stroke:#999999;stroke-width:1;stroke-linecap:square;stroke-linejoin:miter;stroke-miterlimit:4;stroke-dasharray:none;stroke-opacity:1"
       d="M 0.50001254,534.5 H 1403.5"
       id="path1195-3-6-9" />
    <path
       id="path1195-7-1"
       d="M 0.50001254,578.5 H 1403.5"
       style="fill:none;stroke:#999999;stroke-width:1;stroke-linecap:square;stroke-linejoin:miter;stroke-miterlimit:4;stroke-dasharray:none;stroke-opacity:1" />
    <path
       style="fill:none;stroke:#999999;stroke-width:1;stroke-linecap:square;stroke-linejoin:miter;stroke-miterlimit:4;stroke-dasharray:none;stroke-opacity:1"
       d="M 0.50001254,622.5 H 1403.5"
       id="path1195-3-5-2" />
    <path
       id="path1195-3-6-3-7"
       d="M 0.50001254,666.5 H 1403.5"
       style="fill:none;stroke:#999999;stroke-width:1;stroke-linecap:square;stroke-linejoin:miter;stroke-miterlimit:4;stroke-dasharray:none;stroke-opacity:1" />
    <path
       id="path1195-5-0"
       d="M 0.50001254,710.5 H 1403.5"
       style="fill:none;stroke:#999999;stroke-width:1;stroke-linecap:square;stroke-linejoin:miter;stroke-miterlimit:4;stroke-dasharray:none;stroke-opacity:1" />
    <path
       style="fill:none;stroke:#999999;stroke-width:1;stroke-linecap:square;stroke-linejoin:miter;stroke-miterlimit:4;stroke-dasharray:none;stroke-opacity:1"
       d="M 0.50001254,754.5 H 1403.5"
       id="path1195-3-62-9" />
    <path
       id="path1195-3-6-9-3"
       d="M 0.50001254,798.5 H 1403.5"
       style="fill:none;stroke:#999999;stroke-width:1;stroke-linecap:square;stroke-linejoin:miter;stroke-miterlimit:4;stroke-dasharray:none;stroke-opacity:1" />
    <path
       style="fill:none;stroke:#999999;stroke-width:1;stroke-linecap:square;stroke-linejoin:miter;stroke-miterlimit:4;stroke-dasharray:none;stroke-opacity:1"
       d="M 0.50001254,842.5 H 1403.5"
       id="path1195-7-1-6" />
    <path
       id="path1195-3-5-2-0"
       d="M 0.50001254,886.5 H 1403.5"
       style="fill:none;stroke:#999999;stroke-width:1;stroke-linecap:square;stroke-linejoin:miter;stroke-miterlimit:4;stroke-dasharray:none;stroke-opacity:1" />
    <path
       style="fill:none;stroke:#999999;stroke-width:1;stroke-linecap:square;stroke-linejoin:miter;stroke-miterlimit:4;stroke-dasharray:none;stroke-opacity:1"
       d="M 0.50001254,930.5 H 1403.5"
       id="path1195-3-6-3-7-6" />
    <path
       id="path1195-3-2"
       d="M 0.50001254,974.5 H 1403.5"
       style="fill:none;stroke:#999999;stroke-width:1;stroke-linecap:square;stroke-linejoin:miter;stroke-miterlimit:4;stroke-dasharray:none;stroke-opacity:1" />
    <path
       style="fill:none;stroke:#999999;stroke-width:1;stroke-linecap:square;stroke-linejoin:miter;stroke-miterlimit:4;stroke-dasharray:none;stroke-opacity:1"
       d="M 0.50001254,1018.5 H 1403.5"
       id="path1195-3-6-93" />
    <path
       id="path1195-7-19"
       d="M 0.50001254,1062.5 H 1403.5"
       style="fill:none;stroke:#999999;stroke-width:1;stroke-linecap:square;stroke-linejoin:miter;stroke-miterlimit:4;stroke-dasharray:none;stroke-opacity:1" />
    <path
       style="fill:none;stroke:#999999;stroke-width:1;stroke-linecap:square;stroke-linejoin:miter;stroke-miterlimit:4;stroke-dasharray:none;stroke-opacity:1"
       d="M 0.50001254,1106.5 H 1403.5"
       id="path1195-3-5-4" />
    <path
       id="path1195-3-6-3-78"
       d="M 0.50001254,1150.5 H 1403.5"
       style="fill:none;stroke:#999999;stroke-width:1;stroke-linecap:square;stroke-linejoin:miter;stroke-miterlimit:4;stroke-dasharray:none;stroke-opacity:1" />
    <path
       id="path1195-5-4"
       d="M 0.50001254,1194.5 H 1403.5"
       style="fill:none;stroke:#999999;stroke-width:1;stroke-linecap:square;stroke-linejoin:miter;stroke-miterlimit:4;stroke-dasharray:none;stroke-opacity:1" />
    <path
       style="fill:none;stroke:#999999;stroke-width:1;stroke-linecap:square;stroke-linejoin:miter;stroke-miterlimit:4;stroke-dasharray:none;stroke-opacity:1"
       d="M 0.50001254,1238.5 H 1403.5"
       id="path1195-3-62-5" />
    <path
       id="path1195-3-6-9-0"
       d="M 0.50001254,1282.5 H 1403.5"
       style="fill:none;stroke:#999999;stroke-width:1;stroke-linecap:square;stroke-linejoin:miter;stroke-miterlimit:4;stroke-dasharray:none;stroke-opacity:1" />
    <path
       style="fill:none;stroke:#999999;stroke-width:1;stroke-linecap:square;stroke-linejoin:miter;stroke-miterlimit:4;stroke-dasharray:none;stroke-opacity:1"
       d="M 0.50001254,1326.5 H 1403.5"
       id="path1195-7-1-3" />
    <path
       id="path1195-3-5-2-6"
       d="M 0.50001254,1370.5 H 1403.5"
       style="fill:none;stroke:#999999;stroke-width:1;stroke-linecap:square;stroke-linejoin:miter;stroke-miterlimit:4;stroke-dasharray:none;stroke-opacity:1" />
    <path
       style="fill:none;stroke:#999999;stroke-width:1;stroke-linecap:square;stroke-linejoin:miter;stroke-miterlimit:4;stroke-dasharray:none;stroke-opacity:1"
       d="M 0.50001254,1414.5 H 1403.5"
       id="path1195-3-6-3-7-1" />
    <path
       style="fill:none;stroke:#999999;stroke-width:1;stroke-linecap:square;stroke-linejoin:miter;stroke-miterlimit:4;stroke-dasharray:none;stroke-opacity:1"
       d="M 0.50001254,1458.5 H 1403.5"
       id="path1195-5-0-0" />
    <path
       id="path1195-3-62-9-6"
       d="M 0.50001254,1502.5 H 1403.5"
       style="fill:none;stroke:#999999;stroke-width:1;stroke-linecap:square;stroke-linejoin:miter;stroke-miterlimit:4;stroke-dasharray:none;stroke-opacity:1" />
    <path
       style="fill:none;stroke:#999999;stroke-width:1;stroke-linecap:square;stroke-linejoin:miter;stroke-miterlimit:4;stroke-dasharray:none;stroke-opacity:1"
       d="M 0.50001254,1546.5 H 1403.5"
       id="path1195-3-6-9-3-3" />
    <path
       id="path1195-7-1-6-2"
       d="M 0.50001254,1590.5 H 1403.5"
       style="fill:none;stroke:#999999;stroke-width:1;stroke-linecap:square;stroke-linejoin:miter;stroke-miterlimit:4;stroke-dasharray:none;stroke-opacity:1" />
    <path
       style="fill:none;stroke:#999999;stroke-width:1;stroke-linecap:square;stroke-linejoin:miter;stroke-miterlimit:4;stroke-dasharray:none;stroke-opacity:1"
       d="M 0.50001254,1634.5 H 1403.5"
       id="path1195-3-5-2-0-0" />
    <path
       id="path1195-3-6-3-7-6-6"
       d="M 0.50001254,1678.5 H 1403.5"
       style="fill:none;stroke:#999999;stroke-width:1;stroke-linecap:square;stroke-linejoin:miter;stroke-miterlimit:4;stroke-dasharray:none;stroke-opacity:1" />
    <path
       style="fill:none;stroke:#999999;stroke-width:1;stroke-linecap:square;stroke-linejoin:miter;stroke-miterlimit:4;stroke-dasharray:none;stroke-opacity:1"
       d="M 0.50001254,1722.5 H 1403.5"
       id="path1195-7-1-6-2-5" />
    <path
       id="path1195-3-5-2-0-0-5"
       d="M 0.50001254,1766.5 H 1403.5"
       style="fill:none;stroke:#999999;stroke-width:1;stroke-linecap:square;stroke-linejoin:miter;stroke-miterlimit:4;stroke-dasharray:none;stroke-opacity:1" />
    <path
       style="fill:none;stroke:#999999;stroke-width:1;stroke-linecap:square;stroke-linejoin:miter;stroke-miterlimit:4;stroke-dasharray:none;stroke-opacity:1"
       d="M 0.50000091,138.5 H 1403.5"
       id="path1195-3-6-937" />
  </g>
  <g
     id="common">
    <g
       style="font-style:normal;font-variant:normal;font-weight:normal;font-stretch:normal;font-size:18.6667px;line-height:1.25;font-family:roboto;-inkscape-font-specification:roboto;letter-spacing:0px;word-spacing:0px;fill:#7d7d7d;fill-opacity:1;stroke:none"
       id="text5143-6-8-2-3"
       aria-label="MB-0.6.0">
      <path
         id="path55"
         style="font-size:13.3333px;text-align:end;text-anchor:end"
         d="m 1352.0669,1868.8134 -3.1334,-8.3467 h -0.053 q 0.04,0.4133 0.067,1.12 0.027,0.6933 0.027,1.4533 v 5.7734 h -1.1066 v -9.52 h 1.7733 l 2.9333,7.8 h 0.053 l 2.9866,-7.8 h 1.76 v 9.52 h -1.1866 v -5.8534 q 0,-0.6933 0.027,-1.3733 0.04,-0.68 0.067,-1.1067 h -0.053 l -3.1734,8.3334 z" />
      <path
         id="path57"
         style="font-size:13.3333px;text-align:end;text-anchor:end"
         d="m 1359.9602,1859.2934 h 2.72 q 1.7866,0 2.6933,0.5333 0.92,0.52 0.92,1.8267 0,0.84 -0.4667,1.4 -0.4666,0.5466 -1.3466,0.7066 v 0.067 q 0.6,0.093 1.08,0.3467 0.4933,0.2533 0.7733,0.72 0.28,0.4666 0.28,1.2133 0,1.2933 -0.8933,2 -0.88,0.7067 -2.4134,0.7067 h -3.3466 z m 1.2,4.0533 h 1.76 q 1.2266,0 1.68,-0.3867 0.4533,-0.4 0.4533,-1.1733 0,-0.7867 -0.56,-1.12 -0.5467,-0.3467 -1.76,-0.3467 h -1.5733 z m 0,1 v 3.4533 h 1.92 q 1.2666,0 1.76,-0.4933 0.4933,-0.4933 0.4933,-1.2933 0,-0.7467 -0.52,-1.2 -0.5067,-0.4667 -1.8267,-0.4667 z" />
      <path
         id="path59"
         style="font-size:13.3333px;text-align:end;text-anchor:end"
         d="m 1367.8668,1865.76 v -1.04 h 3.2267 v 1.04 z" />
      <path
         id="path61"
         style="font-size:13.3333px;text-align:end;text-anchor:end"
         d="m 1378.6001,1864.04 q 0,1.5334 -0.32,2.64 -0.32,1.0934 -1.0133,1.68 -0.6934,0.5867 -1.84,0.5867 -1.6133,0 -2.3867,-1.2933 -0.76,-1.3067 -0.76,-3.6134 0,-1.5466 0.3067,-2.64 0.32,-1.0933 1.0133,-1.6666 0.6934,-0.5867 1.8267,-0.5867 1.6,0 2.3866,1.2933 0.7867,1.28 0.7867,3.6 z m -5.1466,0 q 0,1.96 0.44,2.9334 0.4533,0.9733 1.5333,0.9733 1.0666,0 1.52,-0.96 0.4666,-0.9733 0.4666,-2.9467 0,-1.9466 -0.4666,-2.92 -0.4534,-0.9733 -1.52,-0.9733 -1.08,0 -1.5333,0.9733 -0.44,0.9734 -0.44,2.92 z" />
      <path
         id="path63"
         style="font-size:13.3333px;text-align:end;text-anchor:end"
         d="m 1380.2134,1868.0934 q 0,-0.4934 0.24,-0.6934 0.24,-0.2 0.5734,-0.2 0.3466,0 0.5866,0.2 0.2534,0.2 0.2534,0.6934 0,0.48 -0.2534,0.6933 -0.24,0.2133 -0.5866,0.2133 -0.3334,0 -0.5734,-0.2133 -0.24,-0.2133 -0.24,-0.6933 z" />
      <path
         id="path65"
         style="font-size:13.3333px;text-align:end;text-anchor:end"
         d="m 1383.5601,1864.7467 q 0,-1.0267 0.1733,-2.0133 0.1867,-1 0.6533,-1.8 0.48,-0.8134 1.3334,-1.2934 0.8533,-0.48 2.2,-0.48 0.28,0 0.6133,0.027 0.3467,0.027 0.56,0.093 v 1 q -0.24,-0.08 -0.5467,-0.12 -0.2933,-0.04 -0.6,-0.04 -0.92,0 -1.5333,0.3067 -0.6133,0.3067 -0.9733,0.84 -0.3467,0.5333 -0.5067,1.2267 -0.16,0.6933 -0.2,1.48 h 0.08 q 0.3067,-0.4667 0.8533,-0.7867 0.5467,-0.3333 1.4,-0.3333 1.24,0 2,0.76 0.76,0.7466 0.76,2.1333 0,1.4933 -0.8266,2.3467 -0.8134,0.8533 -2.2,0.8533 -0.9067,0 -1.64,-0.4533 -0.7334,-0.4534 -1.1734,-1.3867 -0.4266,-0.9333 -0.4266,-2.36 z m 3.2266,3.2133 q 0.84,0 1.36,-0.5333 0.52,-0.5467 0.52,-1.68 0,-0.9067 -0.4666,-1.44 -0.4534,-0.5333 -1.3734,-0.5333 -0.6266,0 -1.0933,0.2666 -0.4667,0.2534 -0.7333,0.6534 -0.2534,0.4 -0.2534,0.8266 0,0.5734 0.2267,1.1467 0.2267,0.56 0.68,0.9333 0.4533,0.36 1.1333,0.36 z" />
      <path
         id="path67"
         style="font-size:13.3333px;text-align:end;text-anchor:end"
         d="m 1391.4134,1868.0934 q 0,-0.4934 0.24,-0.6934 0.24,-0.2 0.5733,-0.2 0.3467,0 0.5867,0.2 0.2533,0.2 0.2533,0.6934 0,0.48 -0.2533,0.6933 -0.24,0.2133 -0.5867,0.2133 -0.3333,0 -0.5733,-0.2133 -0.24,-0.2133 -0.24,-0.6933 z" />
      <path
         id="path69"
         style="font-size:13.3333px;text-align:end;text-anchor:end"
         d="m 1401,1864.04 q 0,1.5334 -0.32,2.64 -0.32,1.0934 -1.0133,1.68 -0.6934,0.5867 -1.84,0.5867 -1.6133,0 -2.3867,-1.2933 -0.76,-1.3067 -0.76,-3.6134 0,-1.5466 0.3067,-2.64 0.32,-1.0933 1.0133,-1.6666 0.6934,-0.5867 1.8267,-0.5867 1.6,0 2.3866,1.2933 0.7867,1.28 0.7867,3.6 z m -5.1466,0 q 0,1.96 0.44,2.9334 0.4533,0.9733 1.5333,0.9733 1.0666,0 1.52,-0.96 0.4666,-0.9733 0.4666,-2.9467 0,-1.9466 -0.4666,-2.92 -0.4534,-0.9733 -1.52,-0.9733 -1.08,0 -1.5333,0.9733 -0.44,0.9734 -0.44,2.92 z" />
    </g>
    <path
       style="fill:none;stroke:#999999;stroke-width:1;stroke-linecap:square;stroke-linejoin:miter;stroke-miterlimit:4;stroke-dasharray:none;stroke-opacity:1"
       d="m 120.5,0.5 v 1871"
       id="path1195-3-56-3" />
    <path
       id="path1195-3-56-3-6"
       d="m 1343.5,0.5 v 1871"
       style="fill:none;stroke:#999999;stroke-width:1;stroke-linecap:square;stroke-linejoin:miter;stroke-miterlimit:4;stroke-dasharray:none;stroke-opacity:1" />
  </g>
</svg>
