<?xml version="1.0" encoding="UTF-8" standalone="no"?>
<svg
   xmlns:osb="http://www.openswatchbook.org/uri/2009/osb"
   xmlns:dc="http://purl.org/dc/elements/1.1/"
   xmlns:cc="http://creativecommons.org/ns#"
   xmlns:rdf="http://www.w3.org/1999/02/22-rdf-syntax-ns#"
   xmlns:svg="http://www.w3.org/2000/svg"
   xmlns="http://www.w3.org/2000/svg"
   width="1404"
   height="1872"
   viewBox="0 0 1404 1872"
   version="1.1"
   id="svg8">
  <defs
     id="defs2">
    <linearGradient
       id="linearGradient6504"
       osb:paint="solid">
      <stop
         style="stop-color:#7d7d7d;stop-opacity:1;"
         offset="0"
         id="stop6502" />
    </linearGradient>
  </defs>
  <metadata
     id="metadata5">
    <rdf:RDF>
      <cc:Work
         rdf:about="">
        <dc:format>image/svg+xml</dc:format>
        <dc:type
           rdf:resource="http://purl.org/dc/dcmitype/StillImage" />
        <dc:title />
      </cc:Work>
    </rdf:RDF>
  </metadata>
  <g
     id="common">
    <g
       style="font-style:normal;font-variant:normal;font-weight:normal;font-stretch:normal;font-size:18.6667px;line-height:1.25;font-family:roboto;-inkscape-font-specification:roboto;letter-spacing:0px;word-spacing:0px;fill:#7d7d7d;fill-opacity:1;stroke:none"
       id="text5143-6-8-2-3"
       aria-label="MB-0.5.0">
      <path
         id="path60"
         style="font-size:13.3333px;text-align:end;text-anchor:end"
         d="m 1295.0669,1824.6666 -3.1334,-8.3466 h -0.053 q 0.04,0.4133 0.067,1.12 0.027,0.6933 0.027,1.4533 v 5.7733 h -1.1066 v -9.5199 h 1.7733 l 2.9333,7.7999 h 0.053 l 2.9866,-7.7999 h 1.76 v 9.5199 h -1.1866 v -5.8533 q 0,-0.6933 0.027,-1.3733 0.04,-0.68 0.067,-1.1067 h -0.053 l -3.1734,8.3333 z" />
      <path
         id="path62"
         style="font-size:13.3333px;text-align:end;text-anchor:end"
         d="m 1302.9602,1815.1467 h 2.72 q 1.7866,0 2.6933,0.5333 0.92,0.52 0.92,1.8266 0,0.84 -0.4667,1.4 -0.4666,0.5467 -1.3466,0.7067 v 0.067 q 0.6,0.093 1.08,0.3466 0.4933,0.2534 0.7733,0.72 0.28,0.4667 0.28,1.2134 0,1.2933 -0.8933,2 -0.88,0.7066 -2.4134,0.7066 h -3.3466 z m 1.2,4.0533 h 1.76 q 1.2266,0 1.68,-0.3867 0.4533,-0.4 0.4533,-1.1733 0,-0.7867 -0.56,-1.12 -0.5467,-0.3467 -1.76,-0.3467 h -1.5733 z m 0,1 v 3.4533 h 1.92 q 1.2666,0 1.76,-0.4933 0.4933,-0.4934 0.4933,-1.2934 0,-0.7466 -0.52,-1.2 -0.5067,-0.4666 -1.8267,-0.4666 z" />
      <path
         id="path64"
         style="font-size:13.3333px;text-align:end;text-anchor:end"
         d="m 1310.8668,1821.6133 v -1.04 h 3.2267 v 1.04 z" />
      <path
         id="path66"
         style="font-size:13.3333px;text-align:end;text-anchor:end"
         d="m 1321.6001,1819.8933 q 0,1.5333 -0.32,2.64 -0.32,1.0933 -1.0133,1.68 -0.6934,0.5867 -1.84,0.5867 -1.6133,0 -2.3867,-1.2934 -0.76,-1.3066 -0.76,-3.6133 0,-1.5467 0.3067,-2.64 0.32,-1.0933 1.0133,-1.6667 0.6934,-0.5866 1.8267,-0.5866 1.6,0 2.3866,1.2933 0.7867,1.28 0.7867,3.6 z m -5.1466,0 q 0,1.96 0.44,2.9333 0.4533,0.9734 1.5333,0.9734 1.0666,0 1.52,-0.96 0.4666,-0.9734 0.4666,-2.9467 0,-1.9467 -0.4666,-2.92 -0.4534,-0.9733 -1.52,-0.9733 -1.08,0 -1.5333,0.9733 -0.44,0.9733 -0.44,2.92 z" />
      <path
         id="path68"
         style="font-size:13.3333px;text-align:end;text-anchor:end"
         d="m 1323.2134,1823.9466 q 0,-0.4933 0.24,-0.6933 0.24,-0.2 0.5734,-0.2 0.3466,0 0.5866,0.2 0.2534,0.2 0.2534,0.6933 0,0.48 -0.2534,0.6934 -0.24,0.2133 -0.5866,0.2133 -0.3334,0 -0.5734,-0.2133 -0.24,-0.2134 -0.24,-0.6934 z" />
      <path
         id="path70"
         style="font-size:13.3333px;text-align:end;text-anchor:end"
         d="m 1329.4934,1818.8266 q 1.4667,0 2.3333,0.7334 0.8667,0.7333 0.8667,2.0666 0,1.48 -0.9467,2.3334 -0.9333,0.84 -2.6133,0.84 -0.7333,0 -1.3867,-0.1334 -0.64,-0.1333 -1.08,-0.3866 v -1.1067 q 0.48,0.2933 1.16,0.4667 0.6934,0.16 1.32,0.16 1.0534,0 1.6934,-0.4934 0.6533,-0.5066 0.6533,-1.56 0,-0.9333 -0.5733,-1.4266 -0.5734,-0.5067 -1.8134,-0.5067 -0.3733,0 -0.8533,0.067 -0.48,0.067 -0.7733,0.1333 l -0.5867,-0.3733 0.36,-4.4933 h 4.7733 v 1.0666 h -3.7733 l -0.2267,2.76 q 0.2267,-0.04 0.6134,-0.093 0.3866,-0.053 0.8533,-0.053 z" />
      <path
         id="path72"
         style="font-size:13.3333px;text-align:end;text-anchor:end"
         d="m 1334.4134,1823.9466 q 0,-0.4933 0.24,-0.6933 0.24,-0.2 0.5733,-0.2 0.3467,0 0.5867,0.2 0.2533,0.2 0.2533,0.6933 0,0.48 -0.2533,0.6934 -0.24,0.2133 -0.5867,0.2133 -0.3333,0 -0.5733,-0.2133 -0.24,-0.2134 -0.24,-0.6934 z" />
      <path
         id="path74"
         style="font-size:13.3333px;text-align:end;text-anchor:end"
         d="m 1344,1819.8933 q 0,1.5333 -0.32,2.64 -0.32,1.0933 -1.0133,1.68 -0.6934,0.5867 -1.84,0.5867 -1.6133,0 -2.3867,-1.2934 -0.76,-1.3066 -0.76,-3.6133 0,-1.5467 0.3067,-2.64 0.32,-1.0933 1.0133,-1.6667 0.6934,-0.5866 1.8267,-0.5866 1.6,0 2.3866,1.2933 0.7867,1.28 0.7867,3.6 z m -5.1466,0 q 0,1.96 0.44,2.9333 0.4533,0.9734 1.5333,0.9734 1.0666,0 1.52,-0.96 0.4666,-0.9734 0.4666,-2.9467 0,-1.9467 -0.4666,-2.92 -0.4534,-0.9733 -1.52,-0.9733 -1.08,0 -1.5333,0.9733 -0.44,0.9733 -0.44,2.92 z" />
    </g>
    <g
       style="font-style:normal;font-variant:normal;font-weight:normal;font-stretch:normal;font-size:18.6667px;line-height:1.25;font-family:roboto;-inkscape-font-specification:roboto;letter-spacing:0px;word-spacing:0px;fill:#000000;fill-opacity:1;stroke:none"
       id="text5143"
       aria-label="Meeting:">
      <path
         id="path77"
         d="m 130.88001,61.757332 -4.38667,-11.685355 h -0.0747 q 0.056,0.578668 0.0933,1.568003 0.0373,0.970669 0.0373,2.034671 v 8.082681 H 125 V 48.429308 h 2.48267 l 4.10668,10.92002 h 0.0747 l 4.18134,-10.92002 h 2.46401 v 13.328024 h -1.66134 V 53.56265 q 0,-0.970668 0.0373,-1.92267 0.056,-0.952001 0.0933,-1.549336 h -0.0747 l -4.44267,11.666688 z" />
      <path
         id="path79"
         d="m 145.5707,51.565313 q 1.288,0 2.20267,0.560001 0.93333,0.560001 1.41867,1.58667 0.504,1.008002 0.504,2.370671 v 0.989335 h -6.85068 q 0.0373,1.69867 0.85867,2.594671 0.84,0.877335 2.33333,0.877335 0.95201,0 1.68001,-0.168 0.74666,-0.186667 1.53067,-0.522668 v 1.437336 q -0.76534,0.336001 -1.51201,0.485335 -0.74666,0.168 -1.77333,0.168 -1.41867,0 -2.52001,-0.578668 -1.08267,-0.578668 -1.69867,-1.717336 -0.59733,-1.157336 -0.59733,-2.818672 0,-1.64267 0.54133,-2.818672 0.56,-1.176002 1.54934,-1.81067 1.008,-0.634668 2.33334,-0.634668 z m -0.0187,1.344003 q -1.176,0 -1.86667,0.765335 -0.672,0.746668 -0.80267,2.09067 h 5.09601 q -0.0187,-1.269336 -0.59733,-2.053337 -0.57867,-0.802668 -1.82934,-0.802668 z" />
      <path
         id="path81"
         d="m 156.0987,51.565313 q 1.288,0 2.20267,0.560001 0.93334,0.560001 1.41867,1.58667 0.504,1.008002 0.504,2.370671 v 0.989335 h -6.85068 q 0.0373,1.69867 0.85867,2.594671 0.84,0.877335 2.33334,0.877335 0.952,0 1.68,-0.168 0.74667,-0.186667 1.53067,-0.522668 v 1.437336 q -0.76533,0.336001 -1.512,0.485335 -0.74667,0.168 -1.77334,0.168 -1.41867,0 -2.52,-0.578668 -1.08267,-0.578668 -1.69867,-1.717336 -0.59734,-1.157336 -0.59734,-2.818672 0,-1.64267 0.54134,-2.818672 0.56,-1.176002 1.54933,-1.81067 1.008,-0.634668 2.33334,-0.634668 z m -0.0187,1.344003 q -1.176,0 -1.86667,0.765335 -0.672,0.746668 -0.80266,2.09067 h 5.096 q -0.0187,-1.269336 -0.59733,-2.053337 -0.57867,-0.802668 -1.82934,-0.802668 z" />
      <path
         id="path83"
         d="m 166.10403,60.599996 q 0.37334,0 0.76534,-0.056 0.392,-0.07467 0.63467,-0.149333 v 1.250669 q -0.26134,0.130667 -0.74667,0.205333 -0.48534,0.09333 -0.93334,0.09333 -0.784,0 -1.456,-0.261334 -0.65333,-0.28 -1.064,-0.952002 -0.41067,-0.672001 -0.41067,-1.885336 v -5.824011 h -1.41867 v -0.784001 l 1.43734,-0.653335 0.65333,-2.128004 h 0.97067 v 2.296004 h 2.89334 v 1.269336 h -2.89334 v 5.786677 q 0,0.914669 0.42934,1.362669 0.448,0.429334 1.13866,0.429334 z" />
      <path
         id="path85"
         d="m 170.34134,47.999974 q 0.37334,0 0.65334,0.261333 0.29867,0.242668 0.29867,0.784002 0,0.522668 -0.29867,0.784001 -0.28,0.261334 -0.65334,0.261334 -0.41066,0 -0.69066,-0.261334 -0.28,-0.261333 -0.28,-0.784001 0,-0.541334 0.28,-0.784002 0.28,-0.261333 0.69066,-0.261333 z m 0.80267,3.752006 v 10.005352 h -1.64267 V 51.75198 Z" />
      <path
         id="path87"
         d="m 179.13335,51.565313 q 1.792,0 2.70667,0.877335 0.91467,0.858669 0.91467,2.800005 v 6.514679 h -1.624 v -6.402678 q 0,-2.408005 -2.24001,-2.408005 -1.66133,0 -2.296,0.933335 -0.63467,0.933335 -0.63467,2.688005 v 5.189343 h -1.64267 V 51.75198 h 1.32534 l 0.24266,1.36267 h 0.0933 q 0.48533,-0.784002 1.344,-1.157336 0.85867,-0.392001 1.81067,-0.392001 z" />
      <path
         id="path89"
         d="m 189.4,51.565313 q 0.98933,0 1.77333,0.373334 0.80267,0.373334 1.36267,1.138669 h 0.0933 l 0.224,-1.325336 h 1.30667 v 10.173352 q 0,2.146671 -1.10134,3.229339 -1.08267,1.082669 -3.37867,1.082669 -2.20267,0 -3.60268,-0.634668 v -1.512003 q 1.47467,0.784002 3.69601,0.784002 1.288,0 2.01601,-0.765335 0.74666,-0.746668 0.74666,-2.053337 v -0.392001 q 0,-0.224 0.0187,-0.634667 0.0187,-0.429335 0.0373,-0.597335 h -0.0747 q -1.00801,1.512003 -3.09868,1.512003 -1.94133,0 -3.04267,-1.362669 -1.08267,-1.362669 -1.08267,-3.808007 0,-2.389338 1.08267,-3.78934 1.10134,-1.41867 3.02401,-1.41867 z m 0.224,1.381336 q -1.25067,0 -1.94134,1.008002 -0.69067,0.989335 -0.69067,2.837339 0,1.848003 0.672,2.837338 0.69067,0.970668 1.99734,0.970668 1.512,0 2.20267,-0.802668 0.69067,-0.821335 0.69067,-2.632004 v -0.392001 q 0,-2.053337 -0.70933,-2.930672 -0.70934,-0.896002 -2.22134,-0.896002 z" />
      <path
         id="path91"
         d="m 197.09068,52.759982 q 0,-0.709334 0.336,-0.989335 0.336,-0.28 0.80266,-0.28 0.48534,0 0.82134,0.28 0.35467,0.280001 0.35467,0.989335 0,0.672001 -0.35467,0.970669 -0.336,0.298667 -0.82134,0.298667 -0.46666,0 -0.80266,-0.298667 -0.336,-0.298668 -0.336,-0.970669 z m 0,7.989348 q 0,-0.690668 0.336,-0.970668 0.336,-0.280001 0.80266,-0.280001 0.48534,0 0.82134,0.280001 0.35467,0.28 0.35467,0.970668 0,0.672001 -0.35467,0.970668 -0.336,0.298668 -0.82134,0.298668 -0.46666,0 -0.80266,-0.298668 -0.336,-0.298667 -0.336,-0.970668 z" />
    </g>
    <g
       style="font-style:normal;font-variant:normal;font-weight:normal;font-stretch:normal;font-size:18.6667px;line-height:1.25;font-family:roboto;-inkscape-font-specification:roboto;letter-spacing:0px;word-spacing:0px;fill:#000000;fill-opacity:1;stroke:none"
       id="text5143-6"
       aria-label="Date:">
      <path
         id="path94"
         d="m 1149.6774,54.962653 q 0,3.378673 -1.848,5.096009 -1.8294,1.69867 -5.1147,1.69867 H 1139 V 48.429308 h 4.1067 q 2.016,0 3.4906,0.746668 1.4747,0.746668 2.2774,2.20267 0.8027,1.437336 0.8027,3.584007 z m -1.7734,0.056 q 0,-2.669338 -1.3253,-3.90134 -1.3067,-1.250669 -3.7147,-1.250669 h -2.184 v 10.453352 h 1.8107 q 5.4133,0 5.4133,-5.301343 z" />
      <path
         id="path96"
         d="m 1156.192,51.58398 q 1.8294,0 2.7067,0.802668 0.8773,0.802668 0.8773,2.557338 v 6.813346 h -1.1946 l -0.3174,-1.418669 h -0.075 q -0.6534,0.821334 -1.3814,1.213335 -0.7093,0.392001 -1.9786,0.392001 -1.3627,0 -2.2587,-0.709335 -0.896,-0.728001 -0.896,-2.258671 0,-1.493336 1.176,-2.296004 1.176,-0.821334 3.6213,-0.896001 l 1.6987,-0.056 v -0.597335 q 0,-1.250669 -0.5413,-1.736003 -0.5414,-0.485334 -1.5307,-0.485334 -0.784,0 -1.4933,0.242667 -0.7094,0.224 -1.3254,0.522668 l -0.504,-1.232003 q 0.6534,-0.354667 1.5494,-0.597334 0.896,-0.261334 1.8666,-0.261334 z m 1.96,5.282676 -1.4746,0.056 q -1.8667,0.07467 -2.5947,0.597335 -0.7093,0.522667 -0.7093,1.474669 0,0.840002 0.504,1.232002 0.5226,0.392001 1.3253,0.392001 1.2693,0 2.1093,-0.690668 0.84,-0.709334 0.84,-2.165337 z" />
      <path
         id="path98"
         d="m 1166.216,60.599996 q 0.3734,0 0.7654,-0.056 0.392,-0.07467 0.6346,-0.149333 v 1.250669 q -0.2613,0.130667 -0.7466,0.205333 -0.4854,0.09333 -0.9334,0.09333 -0.784,0 -1.456,-0.261334 -0.6533,-0.28 -1.064,-0.952002 -0.4107,-0.672001 -0.4107,-1.885336 v -5.824011 h -1.4186 v -0.784001 l 1.4373,-0.653335 0.6533,-2.128004 h 0.9707 v 2.296004 h 2.8934 v 1.269336 h -2.8934 v 5.786677 q 0,0.914669 0.4294,1.362669 0.448,0.429334 1.1386,0.429334 z" />
      <path
         id="path100"
         d="m 1173.4773,51.565313 q 1.288,0 2.2027,0.560001 0.9333,0.560001 1.4187,1.58667 0.504,1.008002 0.504,2.370671 v 0.989335 h -6.8507 q 0.037,1.69867 0.8587,2.594671 0.84,0.877335 2.3333,0.877335 0.952,0 1.68,-0.168 0.7467,-0.186667 1.5307,-0.522668 v 1.437336 q -0.7654,0.336001 -1.512,0.485335 -0.7467,0.168 -1.7734,0.168 -1.4186,0 -2.52,-0.578668 -1.0826,-0.578668 -1.6986,-1.717336 -0.5974,-1.157336 -0.5974,-2.818672 0,-1.64267 0.5414,-2.818672 0.56,-1.176002 1.5493,-1.81067 1.008,-0.634668 2.3333,-0.634668 z m -0.019,1.344003 q -1.176,0 -1.8667,0.765335 -0.672,0.746668 -0.8027,2.09067 h 5.096 q -0.019,-1.269336 -0.5973,-2.053337 -0.5787,-0.802668 -1.8293,-0.802668 z" />
      <path
         id="path102"
         d="m 1179.8987,52.759982 q 0,-0.709334 0.336,-0.989335 0.336,-0.28 0.8026,-0.28 0.4854,0 0.8214,0.28 0.3546,0.280001 0.3546,0.989335 0,0.672001 -0.3546,0.970669 -0.336,0.298667 -0.8214,0.298667 -0.4666,0 -0.8026,-0.298667 -0.336,-0.298668 -0.336,-0.970669 z m 0,7.989348 q 0,-0.690668 0.336,-0.970668 0.336,-0.280001 0.8026,-0.280001 0.4854,0 0.8214,0.280001 0.3546,0.28 0.3546,0.970668 0,0.672001 -0.3546,0.970668 -0.336,0.298668 -0.8214,0.298668 -0.4666,0 -0.8026,-0.298668 -0.336,-0.298667 -0.336,-0.970668 z" />
    </g>
    <path
       id="path235"
       d="m 120.5,64.5 v 1747 h 1223 V 64.5"
       style="fill:none;stroke:#000000;stroke-width:1px;stroke-linecap:square;stroke-linejoin:miter;stroke-opacity:1" />
    <path
       id="path1060"
       d="M 121.00042,158.50002 H 1342.9998"
       style="fill:none;stroke:#000000;stroke-width:1px;stroke-linecap:square;stroke-linejoin:miter;stroke-opacity:1" />
    <path
       style="fill:none;stroke:#000000;stroke-width:2;stroke-linecap:square;stroke-linejoin:miter;stroke-miterlimit:4;stroke-dasharray:none;stroke-opacity:1"
       d="m 121.5,198 h 1221"
       id="path1060-3" />
    <path
       id="path1077"
       d="M 1134.5,64.5 V 158"
       style="fill:none;stroke:#000000;stroke-width:1px;stroke-linecap:square;stroke-linejoin:miter;stroke-opacity:1" />
  </g>
</svg>
